# xmcd
#
# Track frame offsets:
#	150
#	17375
#	33407
#	48530
#	63892
#	82980
#	99837
#	120645
#	139280
#	155017
#
# Disc length: 2249 seconds
# Revision: 0
# Processed by: cddbd v1.5.2PL0 Copyright (c) Steve Scherf et al.
# Submitted via: dBpowerAMP V12.0
#
DISCID=7608c70a
DTITLE=James Carr - Soul Survivor
DYEAR=1994
DGENRE=Soul
TTITLE0=Soul Survivor
TTITLE1=A Man Worth Knowing
TTITLE2=Put Love First
TTITLE3=I Can't Leave Your Love Alone
TTITLE4=Things a Woman Need
TTITLE5=Daydreamin'
TTITLE6=Gonna Marry my Mother-in Law
TTITLE7=I'm Into Something
TTITLE8=Memphis After Midnight
TTITLE9=That's How Strong a Woman's Love is
EXTD=
EXTT0=
EXTT1=
EXTT2=
EXTT3=
EXTT4=
EXTT5=
EXTT6=
EXTT7=
EXTT8=
EXTT9=
PLAYORDER=
